<svg width="795" height="116" viewBox="0 0 795 116" fill="none" xmlns="http://www.w3.org/2000/svg">
<path d="M463.048 107.384C460.36 109.592 457.144 111.32 453.4 112.568C449.656 113.816 445.912 114.44 442.168 114.44C435.736 114.44 430.024 113.144 425.032 110.552C420.136 107.96 416.296 104.312 413.512 99.608C410.824 94.904 409.48 89.384 409.48 83.048C409.48 76.712 410.92 71.24 413.8 66.632C416.776 61.928 420.616 58.28 425.32 55.688C430.12 53.096 435.304 51.8 440.872 51.8C445.672 51.8 449.944 52.472 453.688 53.816C457.432 55.16 460.696 56.984 463.48 59.288L456.712 68.072C454.984 66.824 452.872 65.672 450.376 64.616C447.88 63.464 445.096 62.888 442.024 62.888C438.472 62.888 435.256 63.8 432.376 65.624C429.496 67.352 427.192 69.752 425.464 72.824C423.736 75.8 422.872 79.208 422.872 83.048C422.872 86.792 423.736 90.2 425.464 93.272C427.192 96.344 429.592 98.792 432.664 100.616C435.736 102.44 439.288 103.352 443.32 103.352C445.816 103.352 448.12 102.968 450.232 102.2C452.44 101.432 454.408 100.376 456.136 99.032L463.048 107.384ZM475.152 82.616C475.152 76.664 476.544 71.288 479.328 66.488C482.208 61.688 486.144 57.896 491.136 55.112C496.128 52.328 501.84 50.936 508.272 50.936C514.704 50.936 520.368 52.328 525.264 55.112C530.16 57.896 533.952 61.688 536.64 66.488C539.424 71.288 540.816 76.664 540.816 82.616C540.816 88.568 539.424 93.944 536.64 98.744C533.952 103.544 530.112 107.384 525.12 110.264C520.224 113.048 514.512 114.44 507.984 114.44C501.648 114.44 495.984 113.144 490.992 110.552C486.096 107.96 482.208 104.264 479.328 99.464C476.544 94.664 475.152 89.048 475.152 82.616ZM488.688 82.76C488.688 86.6 489.504 90.104 491.136 93.272C492.864 96.344 495.168 98.792 498.048 100.616C500.928 102.44 504.192 103.352 507.84 103.352C511.584 103.352 514.896 102.44 517.776 100.616C520.656 98.792 522.912 96.344 524.544 93.272C526.272 90.104 527.136 86.6 527.136 82.76C527.136 78.92 526.272 75.464 524.544 72.392C522.912 69.224 520.656 66.728 517.776 64.904C514.896 62.984 511.584 62.024 507.84 62.024C504.192 62.024 500.88 62.984 497.904 64.904C495.024 66.824 492.768 69.368 491.136 72.536C489.504 75.608 488.688 79.016 488.688 82.76ZM563.701 113V65.336H553.477V53.24H563.701V28.184C563.701 19.544 565.669 12.92 569.605 8.31199C573.541 3.70399 579.301 1.39999 586.885 1.39999C588.805 1.39999 590.965 1.68799 593.365 2.26399C595.861 2.84 598.069 3.752 599.989 4.99999L594.229 14.792C593.365 13.928 592.405 13.352 591.349 13.064C590.293 12.68 589.237 12.488 588.181 12.488C584.725 12.488 581.989 13.688 579.973 16.088C578.053 18.488 577.093 22.568 577.093 28.328V53.24H596.101V65.336H577.093V113H563.701ZM607.765 113V65.336H597.541V53.24H607.765V28.184C607.765 19.544 609.733 12.92 613.669 8.31199C617.605 3.70399 623.365 1.39999 630.949 1.39999C632.869 1.39999 635.029 1.68799 637.429 2.26399C639.925 2.84 642.133 3.752 644.053 4.99999L638.293 14.792C637.429 13.928 636.469 13.352 635.413 13.064C634.357 12.68 633.301 12.488 632.245 12.488C628.789 12.488 626.053 13.688 624.037 16.088C622.117 18.488 621.157 22.568 621.157 28.328V53.24H640.165V65.336H621.157V113H607.765ZM684.328 114.44C677.608 114.44 671.752 113.096 666.76 110.408C661.864 107.624 658.072 103.832 655.384 99.032C652.792 94.232 651.496 88.808 651.496 82.76C651.496 76.904 652.936 71.576 655.816 66.776C658.792 61.88 662.776 58.04 667.768 55.256C672.856 52.376 678.472 50.936 684.616 50.936C692.488 50.936 699.016 53.24 704.2 57.848C709.384 62.456 712.936 68.792 714.856 76.856L667.624 93.416C669.256 96.392 671.56 98.744 674.536 100.472C677.512 102.104 680.872 102.92 684.616 102.92C687.304 102.92 689.848 102.44 692.248 101.48C694.648 100.52 696.952 99.272 699.16 97.736L705.352 107.672C702.28 109.688 698.872 111.32 695.128 112.568C691.48 113.816 687.88 114.44 684.328 114.44ZM664.744 82.04C664.648 83.192 664.696 84.296 664.888 85.352L699.592 72.536C698.248 69.656 696.28 67.112 693.688 64.904C691.192 62.696 687.832 61.592 683.608 61.592C678.136 61.592 673.624 63.512 670.072 67.352C666.52 71.192 664.744 76.088 664.744 82.04ZM759.14 114.44C752.42 114.44 746.564 113.096 741.572 110.408C736.676 107.624 732.884 103.832 730.196 99.032C727.604 94.232 726.308 88.808 726.308 82.76C726.308 76.904 727.748 71.576 730.628 66.776C733.604 61.88 737.588 58.04 742.58 55.256C747.668 52.376 753.284 50.936 759.428 50.936C767.3 50.936 773.828 53.24 779.012 57.848C784.196 62.456 787.748 68.792 789.668 76.856L742.436 93.416C744.068 96.392 746.372 98.744 749.348 100.472C752.324 102.104 755.684 102.92 759.428 102.92C762.116 102.92 764.66 102.44 767.06 101.48C769.46 100.52 771.764 99.272 773.972 97.736L780.164 107.672C777.092 109.688 773.684 111.32 769.94 112.568C766.292 113.816 762.692 114.44 759.14 114.44ZM739.556 82.04C739.46 83.192 739.508 84.296 739.7 85.352L774.404 72.536C773.06 69.656 771.092 67.112 768.5 64.904C766.004 62.696 762.644 61.592 758.42 61.592C752.948 61.592 748.436 63.512 744.884 67.352C741.332 71.192 739.556 76.088 739.556 82.04Z" fill="#34D399"/>
<circle cx="358" cy="97" r="18" fill="#34D399"/>
<line x1="358" y1="78" x2="358" y2="116" stroke="white" stroke-width="2"/>
<path d="M14.4 8.16799H83.952V24.296H31.248V52.232H78.192V68.36H31.248V96.872H85.968V113H14.4V8.16799ZM105.869 0.679996H121.997V113H105.869V0.679996ZM144.119 52.088H160.247V113H144.119V52.088ZM143.399 30.344C143.399 27.848 144.359 25.784 146.279 24.152C148.295 22.52 150.455 21.704 152.759 21.704C154.967 21.704 157.031 22.52 158.951 24.152C160.871 25.784 161.831 27.848 161.831 30.344C161.831 32.84 160.871 34.904 158.951 36.536C157.031 38.072 154.967 38.84 152.759 38.84C150.455 38.84 148.295 38.072 146.279 36.536C144.359 34.904 143.399 32.84 143.399 30.344ZM208.001 114.584C202.241 114.584 197.057 113.384 192.449 110.984C187.841 108.584 184.145 105.032 181.361 100.328C178.673 95.624 177.329 89.72 177.329 82.616C177.329 75.704 178.721 69.8 181.505 64.904C184.385 59.912 188.129 56.072 192.737 53.384C197.441 50.696 202.529 49.352 208.001 49.352C213.665 49.352 218.225 50.456 221.681 52.664C225.233 54.776 228.065 57.32 230.177 60.296L231.329 52.088H246.161V113H230.033V104.072C228.977 105.32 227.441 106.76 225.425 108.392C223.409 110.024 220.913 111.464 217.937 112.712C215.057 113.96 211.745 114.584 208.001 114.584ZM212.465 101.336C216.785 101.336 220.481 100.184 223.553 97.88C226.625 95.576 228.785 92.408 230.033 88.376V75.128C228.881 71.384 226.673 68.36 223.409 66.056C220.145 63.752 216.305 62.6 211.889 62.6C208.529 62.6 205.457 63.416 202.673 65.048C199.985 66.584 197.777 68.84 196.049 71.816C194.417 74.696 193.601 78.008 193.601 81.752C193.601 85.4 194.465 88.712 196.193 91.688C197.921 94.664 200.177 97.016 202.961 98.744C205.841 100.472 209.009 101.336 212.465 101.336ZM282.976 52.088L284.128 63.032C286.24 58.904 289.36 55.64 293.488 53.24C297.616 50.744 302.512 49.496 308.176 49.496C313.84 49.496 318.544 51.224 322.288 54.68C326.128 58.04 328.096 62.408 328.192 67.784V113H312.064V73.544C311.872 70.472 310.96 68.024 309.328 66.2C307.792 64.28 305.248 63.272 301.696 63.176C296.704 63.176 292.576 65.336 289.312 69.656C286.144 73.88 284.56 79.304 284.56 85.928V113H268.432V52.088H282.976Z" fill="#374151"/>
</svg>
